<?xml version="1.0" standalone="no"?>
<!DOCTYPE svg PUBLIC "-//W3C//DTD SVG 20010904//EN"
 "http://www.w3.org/TR/2001/REC-SVG-20010904/DTD/svg10.dtd">
<svg version="1.0" xmlns="http://www.w3.org/2000/svg"
 width="580.000000pt" height="386.000000pt" viewBox="0 0 580.000000 186.000000"
 preserveAspectRatio="xMidYMid meet">

<g transform="translate(0.000000,386.000000) scale(0.100000,-0.100000)"
fill="#0FE4A4" stroke="none">
<path d="M1790 1950 l0 -790 185 0 185 0 0 305 0 305 39 0 c39 0 40 0 282
-290 133 -159 243 -290 245 -290 2 0 4 127 4 283 l0 282 -80 94 c-44 52 -80
97 -80 101 0 3 78 99 173 213 l173 208 407 0 c450 -1 455 -1 476 -62 15 -43
14 -73 -4 -115 -26 -63 -34 -64 -500 -64 l-415 0 0 -485 0 -485 180 0 180 0 0
305 c0 257 2 305 14 305 8 0 137 -137 288 -305 l273 -304 249 -1 248 0 -48 53
c-27 29 -151 166 -276 304 l-227 251 62 11 c86 15 198 72 242 123 81 96 110
204 103 390 -4 96 -10 136 -28 183 -46 120 -111 185 -237 234 l-68 26 -545 3
-545 2 -253 -305 -253 -305 -40 0 -39 0 0 305 0 305 -185 0 -185 0 0 -790z"/>
</g>
</svg>
